<svg xmlns="http://www.w3.org/2000/svg" xmlns:xlink="http://www.w3.org/1999/xlink" version="1.1" viewBox="376.79 207.24 246.42 385.51">
  <g id="surface1">
    <path style="stroke:none;fill-rule:nonzero;fill:#2267DC;fill-opacity:1;" d="M 547.644531 260.898438 L 565.421875 254.101563 C 605.035156 289.246094 626.226563 340.699219 622.859375 393.546875 L 619.78125 441.894531 C 619.507813 446.164063 617.597656 450.164063 614.4375 453.054688 C 607.171875 459.699219 594.347656 471.710938 593.714844 474.238281 C 593.0625 476.839844 563.761719 550.589844 548.273438 589.503906 C 546.195313 594.722656 538.457031 593.324219 538.332031 587.707031 L 535.363281 455.671875 L 591.0625 412.351563 L 592.828125 368.589844 L 517.683594 415.890625 L 526.082031 492.363281 L 500 518.445313 L 500 207.242188 L 522.570313 251.285156 C 527.253906 260.421875 538.0625 264.5625 547.644531 260.898438 "/>
    <path style="stroke:none;fill-rule:nonzero;fill:#2267DC;fill-opacity:1;" d="M 452.355469 260.898438 L 434.578125 254.101563 C 394.964844 289.246094 373.773438 340.699219 377.140625 393.546875 L 380.21875 441.894531 C 380.492188 446.164063 382.402344 450.164063 385.5625 453.054688 C 392.828125 459.699219 405.652344 471.710938 406.285156 474.238281 C 406.9375 476.839844 436.238281 550.589844 451.726563 589.503906 C 453.804688 594.722656 461.542969 593.324219 461.667969 587.707031 L 464.636719 455.671875 L 408.9375 412.351563 L 407.171875 368.589844 L 482.316406 415.890625 L 473.917969 492.363281 L 500 518.445313 L 500 207.242188 L 477.429688 251.285156 C 472.746094 260.421875 461.9375 264.5625 452.355469 260.898438 "/>
  </g>
</svg>